<?xml version="1.0" encoding="utf-8"?>
<!-- Generator: Adobe Illustrator 25.1.0, SVG Export Plug-In . SVG Version: 6.00 Build 0)  -->
<svg version="1.1" id="LOGO" xmlns="http://www.w3.org/2000/svg" xmlns:xlink="http://www.w3.org/1999/xlink" x="0px" y="0px"
	 viewBox="0 0 1067.6 283.5" style="enable-background:new 0 0 1067.6 283.5;" xml:space="preserve">
<style type="text/css">
	.st0{fill:#FFFFFF;}
	.st1{display:none;fill:#F82350;}
	.st2{display:none;}
	.st3{display:inline;fill:#F82350;}
</style>
<path class="st0" d="M708.8,133.6v68.8c0,5.6-0.1,5.6-5.5,7.1l0,0c-5.7,1.3-12.7,2.2-20.4,2.2c-8.4,0-16.1-1.2-22-2.7
	c-3.5-1-3.6-1.7-3.6-6.6v-68.9h-43.1v82c0,4.8,0.1,5.5,3.5,6.6c16.8,4.5,39.9,7.3,65.4,7.3c24.5,0,46.8-2.6,63.4-6.7
	c5.3-1.4,5.4-1.5,5.4-7.1v-82H708.8z"/>
<path class="st0" d="M551,202.4c0,5.6-0.1,5.6-5.5,7.1l0,0c-5.6,1.3-13.8,2.2-21.5,2.2c-8.4,0-17.2-1.2-23.1-2.7
	c-3.5-1-3.6-1.7-3.6-6.6v-49.9c0-4.8,0.1-5.5,3.6-6.6c5.9-1.5,14.7-2.7,23.1-2.7c7.7,0,15.8,0.9,21.5,2.2l0,0
	c5.4,1.5,5.5,1.6,5.5,7.1V202.4z M588.2,132.4c-16.6-4.2-39.4-6.7-64-6.7c-9,0-18.2,0.4-26.4,1V57.8h-42.6v157.9
	c0,4.8,0.1,5.5,3.5,6.6c16.8,4.5,40,7.3,65.5,7.3c24.5,0,47.4-2.6,64-6.7c5.2-1.4,5.4-1.5,5.4-7.1v-76.2
	C593.6,134,593.5,133.8,588.2,132.4"/>
<path class="st0" d="M428.8,132.4c-16.6-4.2-39.6-6.7-64.1-6.7c-17.4,0-34.3,1.3-48.2,3.5c-13.9-2.2-30.8-3.5-48.1-3.5
	c-25.5,0-49.4,2.8-66.1,7.3c-3.4,1-3.5,1.8-3.5,6.6v82h43.1v-68.9c0-4.8,0.1-5.5,3.6-6.6c5.9-1.5,14.3-2.7,22.8-2.7
	c7.7,0,15.5,0.9,21.1,2.2l0,0c5.4,1.5,5.5,1.6,5.5,7.1l0.3,68.8h43.1v-68.9c0-4.8,0.1-5.5,3.6-6.6c5.9-1.5,14.3-2.7,22.8-2.7
	c7.7,0,15.5,0.9,21.1,2.2l0,0c5.4,1.5,5.5,1.6,5.5,7.1v68.8h43.1v-82C434.2,134,434.1,133.8,428.8,132.4"/>
<path class="st0" d="M126.1,61c-2.2-5.9-5.5-7-9.9-7H92.5H68.8c-4.4,0-7.7,1-9.9,7L2.5,221.5h43.7L61,174.9c0.8-1.9,1.6-2.4,4.1-2.7
	c7.5-1,17-1.6,27.4-1.6s19.9,0.6,27.4,1.6c2.5,0.4,3.3,0.8,4.1,2.7l14.8,46.6h43.7L126.1,61z M113.1,151.9
	c-6.8-0.4-13.2-0.6-20.6-0.6s-13.7,0.2-20.6,0.6c-4.1,0.3-4.5,0.1-3.4-3.1l21.6-59.3c1.1-3.1,1.7-4.7,2.3-4.7s1.3,1.5,2.3,4.7
	l21.6,59.3C117.6,152,117.2,152.3,113.1,151.9z"/>
<path class="st1" d="M795.3,171.7H788v-38.4h7.3V171.7z"/>
<path class="st1" d="M803.8,133.3h13.5c10.4,0,21.3,5.3,21.3,19.1c0,13.2-10.9,19.3-21,19.3h-13.7L803.8,133.3L803.8,133.3z
	 M810.9,165.4h5.6c8.5,0,14.4-4.6,14.4-13s-6-12.9-14.3-12.9h-5.8L810.9,165.4L810.9,165.4z"/>
<path class="st1" d="M845.1,171.7v-38.4h26.7v6.2h-19.7v9.8h16.3v5.9h-16.3v10.3h20.2v6.2L845.1,171.7L845.1,171.7z"/>
<path class="st1" d="M883.7,171.7h-7.9l16.3-38.4h7.1l16.1,38.4h-8l-3.5-8.5H887L883.7,171.7z M889.3,157.2h12.3l-6.1-15.9
	L889.3,157.2z"/>
<path class="st1" d="M939.5,142.1c-2.5-2.6-5.4-3.6-7.9-3.6c-4.2,0-6,2.2-6,4.3c0,7.1,19.6,5.3,19.6,17.7c0,7.2-6.6,12.2-14.2,12.2
	c-7.3,0-12.3-4.5-13.6-5.8l4.6-4.9c2.5,2.7,5.9,4.4,9.2,4.4c3.9,0,6.7-2.4,6.7-5.3c0-7.3-19.6-5.3-19.6-17.7
	c0-6.6,5.7-11.2,13.1-11.2c4.4,0,9.4,1.7,12.4,5.2L939.5,142.1z"/>
<g class="st2">
	<path class="st3" d="M980.7,171.7h-7.3v-32.1h-11.6v-6.3h30.4v6.3h-11.6L980.7,171.7L980.7,171.7z"/>
	<path class="st3" d="M1022.5,155.1h-18.1v16.6h-7.3v-38.4h7.2v15.6h18.2v-15.6h7.3v38.4h-7.3L1022.5,155.1L1022.5,155.1z"/>
	<path class="st3" d="M1042,171.7h-7.9l16.3-38.4h7.1l16.1,38.4h-8l-3.5-8.5h-16.7L1042,171.7z M1047.6,157.2h12.3l-6.1-15.9
		L1047.6,157.2z"/>
	<path class="st3" d="M1089.2,171.7h-7.3v-32.1h-11.6v-6.3h30.4v6.3h-11.6L1089.2,171.7L1089.2,171.7z"/>
</g>
<g class="st2">
	<path class="st3" d="M800,215.8L800,215.8l8-28.4h7.8l7.9,28.4h0.2l7.4-28.4h7.6l-11.2,38.4h-7.4l-8.4-28.6h-0.1l-8.4,28.6H796
		l-11.1-38.4h7.8L800,215.8z"/>
	<path class="st3" d="M861.2,226.9c-11.8,0-20.6-8.4-20.6-20.3c0-12,8.7-20.1,20.6-20.1c11.8,0,20.6,8,20.6,20.1
		C881.9,218.5,873.1,226.9,861.2,226.9z M861.2,192.9c-7.8,0-12.8,6.1-12.8,13.6c0,7.7,5.1,13.7,12.8,13.7c7.8,0,12.8-6,12.8-13.7
		C874,199,869,192.9,861.2,192.9z"/>
	<path class="st3" d="M888.6,187.4h15.8c8.9,0,13.9,4.4,13.9,11.6c0,6.2-4.2,9.9-8.5,11l10.5,15.8h-8.7l-9.3-14.7h-6.6v14.7h-7.2
		L888.6,187.4L888.6,187.4z M903.2,193.5h-7.5v12h7.6c5.2,0,7.8-2.3,7.8-6.2C911.1,195.2,908.1,193.5,903.2,193.5z"/>
	<path class="st3" d="M943.7,203.5l14.9,22.3h-8.7l-11.2-17.2l-6,6.6v10.6h-7.2v-38.4h7.2v19.5l16.4-19.5h8.9L943.7,203.5z"/>
	<path class="st3" d="M983.2,193.7v10h18.4v6.1h-18.3v16.1h-7.2v-38.4h27.2v6.2H983.2z"/>
	<path class="st3" d="M1027.8,226.9c-11.8,0-20.6-8.4-20.6-20.3c0-12,8.7-20.1,20.6-20.1c11.8,0,20.6,8,20.6,20.1
		C1048.4,218.5,1039.6,226.9,1027.8,226.9z M1027.8,192.9c-7.8,0-12.8,6.1-12.8,13.6c0,7.7,5.1,13.7,12.8,13.7
		c7.8,0,12.8-6,12.8-13.7C1040.6,199,1035.6,192.9,1027.8,192.9z"/>
	<path class="st3" d="M1054.6,187.4h15.8c8.9,0,13.9,4.4,13.9,11.6c0,6.2-4.2,9.9-8.5,11l10.5,15.8h-8.7l-9.3-14.7h-6.6v14.7h-7.2
		L1054.6,187.4L1054.6,187.4z M1069.2,193.5h-7.5v12h7.6c5.2,0,7.8-2.3,7.8-6.2C1077.1,195.2,1074.1,193.5,1069.2,193.5z"/>
	<path class="st3" d="M1111.9,219.5h16.1v6.3h-23.3v-38.4h7.3L1111.9,219.5L1111.9,219.5z"/>
	<path class="st3" d="M1140.1,225.8h-7.3v-38.4h7.3V225.8z"/>
	<path class="st3" d="M1155.9,193.7v10h18.4v6.1H1156v16.1h-7.2v-38.4h27.2v6.2H1155.9z"/>
	<path class="st3" d="M1181.7,225.8v-38.4h26.7v6.2h-19.7v9.8h16.3v5.9h-16.3v10.3h20.2v6.2L1181.7,225.8L1181.7,225.8z"/>
</g>
<g>
	<path class="st0" d="M794.3,140.1v9.9h18.3v6h-18.3v16h-7.2v-38.2h27.1v6.2h-19.9V140.1z"/>
	<path class="st0" d="M839.3,173.1c-11.8,0-20.5-8.3-20.5-20.2c0-12,8.7-20,20.5-20s20.5,8,20.5,20
		C859.8,164.8,851,173.1,839.3,173.1z M839.3,139.3c-7.7,0-12.7,6-12.7,13.6c0,7.7,5.1,13.7,12.7,13.7c7.7,0,12.7-6,12.7-13.7
		C852,145.4,847,139.3,839.3,139.3z"/>
	<path class="st0" d="M866.6,133.9h15.7c8.9,0,13.9,4.4,13.9,11.6c0,6.2-4.2,9.8-8.5,10.9l10.5,15.8h-8.6l-9.2-14.6h-6.6v14.6h-7.1
		v-38.3H866.6z M881.1,139.9h-7.5v12h7.6c5.1,0,7.7-2.3,7.7-6.2C889,141.6,886,139.9,881.1,139.9z"/>
	<path class="st0" d="M902.9,172.1v-38.2h26.6v6.2H910v9.7h16.3v5.8H910v10.3h20.1v6.2H902.9z"/>
	<path class="st0" d="M950.3,163.3h0.2l10.2-29.4h8L954,172.1h-7.3L932,133.9h8.1L950.3,163.3z"/>
	<path class="st0" d="M972.7,172.1v-38.2h26.6v6.2h-19.6v9.7H996v5.8h-16.3v10.3h20.1v6.2H972.7z"/>
	<path class="st0" d="M1006.5,133.9h15.7c8.9,0,13.9,4.4,13.9,11.6c0,6.2-4.2,9.8-8.5,10.9l10.5,15.8h-8.6l-9.2-14.6h-6.6v14.6h-7.1
		v-38.3H1006.5z M1021,139.9h-7.5v12h7.6c5.1,0,7.7-2.3,7.7-6.2C1028.9,141.6,1025.9,139.9,1021,139.9z"/>
	<path class="st0" d="M794.3,189.1v9.9h18.3v6h-18.3v16h-7.2v-38.2h27.1v6.2h-19.9V189.1z"/>
	<path class="st0" d="M839.3,222.1c-11.8,0-20.5-8.3-20.5-20.2c0-12,8.7-20,20.5-20s20.5,8,20.5,20
		C859.8,213.8,851,222.1,839.3,222.1z M839.3,188.3c-7.7,0-12.7,6-12.7,13.6c0,7.7,5.1,13.7,12.7,13.7c7.7,0,12.7-6,12.7-13.7
		C852,194.4,847,188.3,839.3,188.3z"/>
	<path class="st0" d="M866.6,182.9h15.7c8.9,0,13.9,4.4,13.9,11.6c0,6.2-4.2,9.8-8.5,10.9l10.5,15.8h-8.6l-9.2-14.6h-6.6v14.6h-7.1
		v-38.3H866.6z M881.1,188.9h-7.5v12h7.6c5.1,0,7.7-2.3,7.7-6.2C889,190.6,886,188.9,881.1,188.9z"/>
	<path class="st0" d="M914.1,211.1L914.1,211.1l7.9-28.2h7.8l7.9,28.2h0.2l7.3-28.2h7.6l-11.1,38.2h-7.4l-8.3-28.5h-0.1l-8.4,28.5
		H910l-11.1-38.2h7.8L914.1,211.1z"/>
	<path class="st0" d="M958.1,221.1h-7.8l16.2-38.2h7l16,38.2h-8l-3.5-8.4h-16.6L958.1,221.1z M963.7,206.7H976l-6.1-15.8
		L963.7,206.7z"/>
	<path class="st0" d="M993.9,182.9h15.7c8.9,0,13.9,4.4,13.9,11.6c0,6.2-4.2,9.8-8.5,10.9l10.5,15.8h-8.6l-9.2-14.6h-6.6v14.6H994
		v-38.3H993.9z M1008.5,188.9h-7.5v12h7.6c5.1,0,7.7-2.3,7.7-6.2C1016.3,190.6,1013.4,188.9,1008.5,188.9z"/>
	<path class="st0" d="M1030.3,182.9h13.4c10.4,0,21.2,5.2,21.2,19.1c0,13.2-10.8,19.2-21,19.2h-13.7L1030.3,182.9L1030.3,182.9z
		 M1037.3,214.8h5.6c8.4,0,14.4-4.6,14.4-12.9c0-8.3-5.9-12.9-14.2-12.9h-5.8V214.8z"/>
</g>
</svg>
